<?xml version="1.0" standalone="no"?>
<!DOCTYPE svg PUBLIC "-//W3C//DTD SVG 20010904//EN"
 "http://www.w3.org/TR/2001/REC-SVG-20010904/DTD/svg10.dtd">
<svg version="1.0" xmlns="http://www.w3.org/2000/svg"
 width="498.000000pt" height="465.000000pt" viewBox="0 0 498.000000 465.000000"
 preserveAspectRatio="xMidYMid meet">

<g transform="translate(0.000000,465.000000) scale(0.100000,-0.100000)"
fill="#000000" stroke="none">
<path d="M1771 4629 c-52 -10 -103 -47 -136 -98 -37 -55 -56 -105 -805 -2096
-791 -2101 -795 -2112 -816 -2202 -14 -61 -14 -70 1 -110 22 -56 63 -89 129
-103 37 -7 245 -10 672 -8 l619 3 43 23 c71 38 96 85 174 326 86 270 115 342
136 351 59 25 1216 31 1337 7 51 -9 54 -15 149 -302 89 -269 97 -289 138 -336
63 -72 32 -69 737 -72 453 -2 650 0 690 9 69 14 126 65 136 123 14 75 58 -46
-922 2561 -316 842 -597 1586 -624 1655 -64 161 -103 220 -166 251 l-48 24
-700 2 c-385 0 -720 -3 -744 -8z m164 -337 c22 -15 54 -52 72 -81 32 -53 77
-171 68 -179 -11 -11 -58 12 -127 63 -97 70 -127 133 -96 200 14 32 33 31 83
-3z m276 -385 c47 -31 49 -61 7 -87 -44 -27 -66 -25 -78 6 -11 29 -13 87 -3
97 12 13 40 7 74 -16z m334 -1115 c100 -274 208 -623 241 -785 16 -75 16 -89
4 -97 -35 -21 -548 -26 -616 -5 -25 8 -25 16 7 155 43 184 211 712 270 845 20
44 23 47 35 31 7 -10 33 -75 59 -144z m-923 96 c3 -7 24 -12 53 -13 37 0 54
-5 72 -23 12 -12 36 -25 53 -28 16 -4 27 -10 24 -15 -3 -5 1 -12 9 -15 24 -9
44 -71 73 -219 44 -228 53 -327 48 -494 l-4 -153 34 -34 c19 -19 41 -34 49
-34 43 0 116 -167 102 -234 -7 -36 -38 -74 -82 -98 -41 -23 -52 -23 -117 7
-151 69 -245 371 -246 787 0 106 -12 158 -35 158 -26 0 -66 -29 -93 -66 -32
-44 -73 -70 -96 -61 -21 8 -38 54 -32 86 3 14 8 96 11 181 3 85 11 169 17 186
13 36 46 59 101 69 20 4 37 11 37 16 0 13 18 11 22 -3z m1704 -192 c0 0 9 -14
19 -31 11 -16 18 -34 17 -39 -5 -17 60 -75 77 -68 30 11 43 32 43 69 l0 36 17
-34 c12 -26 23 -35 46 -37 39 -4 89 -53 112 -109 10 -23 22 -43 26 -43 5 0 6
-4 2 -9 -3 -5 -1 -12 4 -15 11 -7 28 -86 35 -156 3 -25 27 -104 55 -177 49
-128 50 -132 36 -167 -14 -34 -27 -41 -65 -36 -15 1 -99 88 -100 103 0 4 -11
7 -24 7 -21 0 -28 -10 -48 -61 -13 -34 -30 -64 -38 -66 -13 -4 -15 -20 -12
-98 5 -101 -9 -165 -35 -165 -13 0 -15 9 -9 53 3 28 9 84 13 124 l6 72 -51 -6
c-45 -5 -53 -3 -76 20 -14 14 -26 37 -26 51 0 14 -5 28 -10 31 -6 4 -8 11 -5
16 3 5 0 23 -8 41 -18 39 -29 69 -32 83 -2 6 -15 41 -30 79 -45 112 -57 180
-50 276 4 47 6 105 6 129 -2 48 19 81 52 81 16 0 19 5 13 31 -5 28 -4 30 17
23 12 -3 22 -7 23 -8z m-1950 -892 c-14 -168 -26 -221 -48 -208 -7 5 -9 43 -5
123 7 128 20 208 45 291 l17 55 3 -45 c2 -25 -4 -122 -12 -216z m1691 -34 c51
-31 67 -72 59 -153 l-6 -69 36 -34 c39 -37 39 -54 2 -78 -55 -36 -222 -59
-258 -36 -13 8 -12 15 8 49 29 52 28 61 -8 118 -51 80 -35 156 44 204 40 24
83 24 123 -1z"/>
</g>
</svg>
